<svg xmlns="http://www.w3.org/2000/svg" xmlns:xlink="http://www.w3.org/1999/xlink" viewBox="0 0 656.95 109.48" width="300" height="50"><defs><linearGradient id="linear-gradient" x1="133.88" y1="56.33" x2="656.95" y2="56.33" gradientUnits="userSpaceOnUse"><stop offset="0" stop-color="#e80d7a"/><stop offset="1" stop-color="#ad208e"/></linearGradient><linearGradient id="linear-gradient-13" x1="-7.37" y1="35.03" x2="116.85" y2="74.45" xlink:href="#linear-gradient"/></defs><g id="Layer_2" data-name="Layer 2"><g id="Layer_1-2" data-name="Layer 1"><path d="M152.53,29.89A19.64,19.64,0,0,1,162,27.67a21.06,21.06,0,0,1,11.17,3,21.43,21.43,0,0,1,7.92,8.65,27.83,27.83,0,0,1,2.91,13,28.38,28.38,0,0,1-2.91,13.09,21.85,21.85,0,0,1-7.92,8.82A20.59,20.59,0,0,1,162,77.41a19.44,19.44,0,0,1-9.35-2.17,19.94,19.94,0,0,1-6.57-5.48V99.59H133.88V28.46h12.17v6.95A18.61,18.61,0,0,1,152.53,29.89Zm17.22,15A12.33,12.33,0,0,0,165.06,40a12.62,12.62,0,0,0-6.31-1.65,12.17,12.17,0,0,0-6.22,1.69A12.51,12.51,0,0,0,147.84,45a15.31,15.31,0,0,0-1.79,7.56,15.35,15.35,0,0,0,1.79,7.57A12.48,12.48,0,0,0,152.53,65a12.27,12.27,0,0,0,12.53,0,12.9,12.9,0,0,0,4.69-5,15.5,15.5,0,0,0,1.78-7.65A15.07,15.07,0,0,0,169.75,44.85Z" style="fill:url(#linear-gradient)"/><path d="M192.62,39.41a21.33,21.33,0,0,1,7.91-8.69,21.09,21.09,0,0,1,11.18-3,19.67,19.67,0,0,1,9.44,2.18,19.16,19.16,0,0,1,6.47,5.47V28.46h12.27V76.63H227.62v-7a18.09,18.09,0,0,1-6.47,5.61,19.83,19.83,0,0,1-9.53,2.21,20.47,20.47,0,0,1-11.09-3.13,21.83,21.83,0,0,1-7.91-8.82,28.38,28.38,0,0,1-2.91-13.09A27.92,27.92,0,0,1,192.62,39.41Zm33.26,5.52a12.3,12.3,0,0,0-4.69-4.87,12.56,12.56,0,0,0-6.35-1.69,12.2,12.2,0,0,0-10.91,6.48,15.08,15.08,0,0,0-1.79,7.52A15.59,15.59,0,0,0,203.93,60a12.81,12.81,0,0,0,4.69,5,11.94,11.94,0,0,0,6.22,1.74,12.57,12.57,0,0,0,6.35-1.7,12.23,12.23,0,0,0,4.69-4.87,15.59,15.59,0,0,0,1.74-7.61A15.64,15.64,0,0,0,225.88,44.93Z" style="fill:url(#linear-gradient)"/><path d="M270.1,29.93a17.08,17.08,0,0,1,8.66-2.17V40.54h-3.22q-5.75,0-8.65,2.7T264,52.63v24H251.8V28.46H264v7.47A17.18,17.18,0,0,1,270.1,29.93Z" style="fill:url(#linear-gradient)"/><path d="M286.71,39.41a21.29,21.29,0,0,1,7.92-8.69,21,21,0,0,1,11.17-3,19.64,19.64,0,0,1,9.44,2.18,19.29,19.29,0,0,1,6.48,5.47V28.46H334V76.63H321.72v-7a18.21,18.21,0,0,1-6.48,5.61,19.83,19.83,0,0,1-9.53,2.21,20.43,20.43,0,0,1-11.08-3.13,21.78,21.78,0,0,1-7.92-8.82,28.38,28.38,0,0,1-2.91-13.09A27.92,27.92,0,0,1,286.71,39.41ZM320,44.93a12.32,12.32,0,0,0-4.7-4.87,12.56,12.56,0,0,0-6.35-1.69A12.2,12.2,0,0,0,298,44.85a15.07,15.07,0,0,0-1.78,7.52A15.59,15.59,0,0,0,298,60a12.88,12.88,0,0,0,4.69,5,12,12,0,0,0,6.22,1.74,12.57,12.57,0,0,0,6.35-1.7,12.25,12.25,0,0,0,4.7-4.87,15.59,15.59,0,0,0,1.74-7.61A15.64,15.64,0,0,0,320,44.93Z" style="fill:url(#linear-gradient)"/><path d="M358.07,12.28V76.63H345.89V12.28Z" style="fill:url(#linear-gradient)"/><path d="M414.5,56.2H379.28a12,12,0,0,0,3.66,8.17,11.25,11.25,0,0,0,7.91,3q6.78,0,9.65-5.83h13.13a21.91,21.91,0,0,1-8,11.44,23.37,23.37,0,0,1-14.52,4.47,25.1,25.1,0,0,1-12.48-3.08A21.75,21.75,0,0,1,370,65.59a26.78,26.78,0,0,1-3.08-13.05,27.28,27.28,0,0,1,3-13.13,21.23,21.23,0,0,1,8.52-8.69,27.34,27.34,0,0,1,24.92-.09A20.83,20.83,0,0,1,411.85,39a25.38,25.38,0,0,1,3,12.48A29,29,0,0,1,414.5,56.2ZM402.24,48a9.66,9.66,0,0,0-3.39-7.52,12,12,0,0,0-8.09-2.83,11.09,11.09,0,0,0-7.61,2.74A12.09,12.09,0,0,0,379.37,48Z" style="fill:url(#linear-gradient)"/><path d="M452.07,29.8a17.47,17.47,0,0,1,6.44,5.52V28.46h12.26V77a25.84,25.84,0,0,1-2.7,12A20,20,0,0,1,460,97.29a25.91,25.91,0,0,1-13,3.08q-10.26,0-16.83-4.78a17.72,17.72,0,0,1-7.43-13h12.09a9,9,0,0,0,4.13,5.26,14.4,14.4,0,0,0,7.69,2,11.88,11.88,0,0,0,8.61-3.17q3.3-3.18,3.31-9.61V69.5A18.51,18.51,0,0,1,452,75.15a19.32,19.32,0,0,1-9.44,2.26,20.65,20.65,0,0,1-11.13-3.13,21.8,21.8,0,0,1-8-8.82,28.38,28.38,0,0,1-2.91-13.09,27.92,27.92,0,0,1,2.91-13,21.35,21.35,0,0,1,7.92-8.69,21.06,21.06,0,0,1,11.17-3A20.2,20.2,0,0,1,452.07,29.8Zm4.7,15.13a12.32,12.32,0,0,0-4.7-4.87,12.56,12.56,0,0,0-6.35-1.69,12.2,12.2,0,0,0-10.91,6.48A15.07,15.07,0,0,0,433,52.37,15.59,15.59,0,0,0,434.81,60a12.83,12.83,0,0,0,4.7,5,11.9,11.9,0,0,0,6.21,1.74,12.57,12.57,0,0,0,6.35-1.7,12.25,12.25,0,0,0,4.7-4.87,15.59,15.59,0,0,0,1.74-7.61A15.64,15.64,0,0,0,456.77,44.93Z" style="fill:url(#linear-gradient)"/><path d="M482.46,39.41a21.35,21.35,0,0,1,7.92-8.69,21.06,21.06,0,0,1,11.17-3A19.64,19.64,0,0,1,511,29.85a19.29,19.29,0,0,1,6.48,5.47V28.46h12.26V76.63H517.47v-7A18.21,18.21,0,0,1,511,75.2a19.82,19.82,0,0,1-9.52,2.21,20.44,20.44,0,0,1-11.09-3.13,21.85,21.85,0,0,1-7.92-8.82,28.38,28.38,0,0,1-2.91-13.09A27.92,27.92,0,0,1,482.46,39.41Zm33.27,5.52a12.32,12.32,0,0,0-4.7-4.87,12.56,12.56,0,0,0-6.35-1.69,12.2,12.2,0,0,0-10.91,6.48A15.07,15.07,0,0,0,492,52.37,15.59,15.59,0,0,0,493.77,60a12.83,12.83,0,0,0,4.7,5,11.9,11.9,0,0,0,6.21,1.74A12.57,12.57,0,0,0,511,65a12.25,12.25,0,0,0,4.7-4.87,15.59,15.59,0,0,0,1.74-7.61A15.64,15.64,0,0,0,515.73,44.93Z" style="fill:url(#linear-gradient)"/><path d="M553.82,12.28V76.63H541.64V12.28Z" style="fill:url(#linear-gradient)"/><path d="M565.77,75.2a7.15,7.15,0,0,1,0-10.18,7.55,7.55,0,0,1,5.44-2,7.27,7.27,0,0,1,5.3,2,7.24,7.24,0,0,1,0,10.18,7.27,7.27,0,0,1-5.3,2A7.55,7.55,0,0,1,565.77,75.2Z" style="fill:url(#linear-gradient)"/><path d="M600.6,12.28V76.63H588.43V12.28Z" style="fill:url(#linear-gradient)"/><path d="M641.13,76.63,624.78,56.11V76.63H612.6V12.28h12.18V48.89L641,28.46h15.83L635.56,52.63l21.39,24Z" style="fill:url(#linear-gradient)"/><rect width="109.48" height="109.48" rx="13.98" style="fill:url(#linear-gradient-13)"/><circle cx="29.73" cy="39.51" r="4.82" style="fill:#fff"/><path d="M63.64,74.1a21,21,0,1,1,21-21A21,21,0,0,1,63.64,74.1Zm0-34.61A13.62,13.62,0,1,0,77.25,53.1,13.62,13.62,0,0,0,63.64,39.49Z" style="fill:#fff"/><rect x="42.62" y="31.83" width="7.04" height="59.94" style="fill:#fff"/><circle cx="29.66" cy="66.78" r="4.82" style="fill:#fff"/></g></g></svg>